<svg width="255" height="169" viewBox="0 0 255 169" fill="none" xmlns="http://www.w3.org/2000/svg">
<path d="M89.502 84.24C89.502 84.436 89.3853 84.534 89.152 84.534H84.672C84.5693 84.534 84.4993 84.5153 84.462 84.478C84.4247 84.4313 84.406 84.3613 84.406 84.268V83.4C84.406 83.2413 84.4713 83.162 84.602 83.162H89.306C89.4367 83.162 89.502 83.232 89.502 83.372V84.24ZM85.54 78.612C85.6707 78.612 85.862 78.612 86.114 78.612C86.3753 78.612 86.6507 78.612 86.94 78.612C87.2387 78.612 87.514 78.612 87.766 78.612C88.018 78.612 88.2093 78.6167 88.34 78.626C89.6187 78.654 90.6593 78.878 91.462 79.298C92.2647 79.7087 92.8573 80.292 93.24 81.048C93.6227 81.7947 93.814 82.6953 93.814 83.75C93.814 84.8513 93.6087 85.794 93.198 86.578C92.7967 87.362 92.1807 87.964 91.35 88.384C90.5287 88.7947 89.4927 89 88.242 89H85.554C85.358 89 85.26 88.902 85.26 88.706V78.864C85.26 78.7707 85.2787 78.7053 85.316 78.668C85.3627 78.6307 85.4373 78.612 85.54 78.612ZM87.472 80.096C87.3787 80.096 87.332 80.1613 87.332 80.292V87.348C87.332 87.46 87.3927 87.516 87.514 87.516H87.878C88.7367 87.516 89.4413 87.3947 89.992 87.152C90.552 86.9093 90.9673 86.5127 91.238 85.962C91.518 85.4113 91.658 84.6833 91.658 83.778C91.658 82.882 91.5227 82.168 91.252 81.636C90.9907 81.0947 90.5893 80.7027 90.048 80.46C89.5067 80.2173 88.8207 80.096 87.99 80.096H87.472ZM99.511 88.23C99.1937 88.51 98.8483 88.734 98.475 88.902C98.1017 89.0607 97.677 89.14 97.201 89.14C96.4823 89.14 95.9177 88.9533 95.507 88.58C95.1057 88.1973 94.905 87.7027 94.905 87.096C94.905 86.5827 95.059 86.1393 95.367 85.766C95.675 85.3833 96.123 85.0847 96.711 84.87C97.299 84.6553 98.0037 84.5293 98.825 84.492L99.525 84.45C99.581 84.4407 99.6323 84.422 99.679 84.394C99.7257 84.366 99.749 84.3147 99.749 84.24V83.918C99.749 83.5073 99.6277 83.19 99.385 82.966C99.1423 82.7327 98.8063 82.616 98.377 82.616C98.0503 82.616 97.7423 82.6907 97.453 82.84C97.173 82.98 96.9303 83.2133 96.725 83.54C96.697 83.596 96.6643 83.6333 96.627 83.652C96.599 83.6707 96.543 83.6707 96.459 83.652L95.283 83.358C95.2363 83.3393 95.199 83.3113 95.171 83.274C95.1523 83.2367 95.171 83.162 95.227 83.05C95.479 82.518 95.8757 82.1167 96.417 81.846C96.9677 81.5753 97.649 81.44 98.461 81.44C99.1797 81.44 99.7583 81.538 100.197 81.734C100.645 81.93 100.972 82.2053 101.177 82.56C101.382 82.9053 101.485 83.316 101.485 83.792V88.72C101.485 88.8227 101.466 88.8973 101.429 88.944C101.401 88.9813 101.34 89 101.247 89H100.057C99.973 89 99.9123 88.9673 99.875 88.902C99.8377 88.8367 99.8143 88.7573 99.805 88.664L99.777 88.244C99.7583 88.0853 99.6697 88.0807 99.511 88.23ZM99.749 85.612C99.749 85.444 99.679 85.3647 99.539 85.374L98.965 85.416C98.6663 85.4347 98.377 85.4813 98.097 85.556C97.8263 85.6213 97.5837 85.7147 97.369 85.836C97.1637 85.948 96.9957 86.0927 96.865 86.27C96.7437 86.438 96.683 86.6387 96.683 86.872C96.683 87.1893 96.795 87.4413 97.019 87.628C97.2523 87.8147 97.565 87.908 97.957 87.908C98.209 87.908 98.4423 87.866 98.657 87.782C98.8717 87.698 99.0583 87.5907 99.217 87.46C99.3757 87.3293 99.5017 87.194 99.595 87.054C99.6977 86.9047 99.749 86.7553 99.749 86.606V85.612ZM99.119 91.058C99.119 91.1513 99.1003 91.2167 99.063 91.254C99.0257 91.2913 98.9557 91.31 98.853 91.31H97.859C97.7657 91.31 97.705 91.2913 97.677 91.254C97.649 91.226 97.635 91.1747 97.635 91.1V89.896C97.635 89.756 97.6863 89.686 97.789 89.686H98.965C99.0677 89.686 99.119 89.7467 99.119 89.868V91.058ZM100.617 78.612C100.766 78.612 100.818 78.6773 100.771 78.808C100.668 79.1067 100.505 79.3727 100.281 79.606C100.066 79.83 99.8003 80.012 99.483 80.152C99.1657 80.2827 98.811 80.348 98.419 80.348C98.0363 80.348 97.6863 80.2873 97.369 80.166C97.0517 80.0353 96.781 79.8533 96.557 79.62C96.333 79.3867 96.179 79.1067 96.095 78.78C96.0857 78.7427 96.0857 78.7053 96.095 78.668C96.1137 78.6307 96.151 78.612 96.207 78.612H97.019C97.0937 78.612 97.145 78.626 97.173 78.654C97.201 78.6727 97.2383 78.71 97.285 78.766C97.3597 78.8593 97.4483 78.9573 97.551 79.06C97.6537 79.1533 97.7797 79.2327 97.929 79.298C98.0783 79.3633 98.2417 79.396 98.419 79.396C98.6803 79.396 98.9137 79.3307 99.119 79.2C99.3243 79.0693 99.4783 78.92 99.581 78.752C99.6183 78.6867 99.651 78.6493 99.679 78.64C99.7163 78.6213 99.7537 78.612 99.791 78.612H100.617ZM105.727 82.854C105.634 82.854 105.587 82.9053 105.587 83.008V86.746C105.587 87.11 105.662 87.362 105.811 87.502C105.96 87.642 106.194 87.712 106.511 87.712H107.337C107.393 87.712 107.44 87.7307 107.477 87.768C107.514 87.8053 107.533 87.852 107.533 87.908L107.519 88.636C107.519 88.7853 107.43 88.8787 107.253 88.916C107.113 88.9347 106.95 88.9533 106.763 88.972C106.576 88.9813 106.39 88.9907 106.203 89C106.026 89 105.862 89 105.713 89C105.088 89 104.607 88.8553 104.271 88.566C103.935 88.2673 103.767 87.8193 103.767 87.222V83.036C103.767 82.9147 103.711 82.854 103.599 82.854H102.661C102.512 82.854 102.437 82.784 102.437 82.644V81.762C102.437 81.6407 102.507 81.58 102.647 81.58H103.683C103.767 81.58 103.809 81.5333 103.809 81.44L103.991 79.284C104 79.1347 104.066 79.06 104.187 79.06H105.433C105.564 79.06 105.629 79.1393 105.629 79.298V81.44C105.629 81.524 105.671 81.566 105.755 81.566H107.337C107.477 81.566 107.547 81.6313 107.547 81.762V82.644C107.547 82.784 107.468 82.854 107.309 82.854H105.727ZM113.595 88.692C113.595 88.804 113.571 88.8833 113.525 88.93C113.478 88.9767 113.394 89 113.273 89H112.041C111.854 89 111.761 88.916 111.761 88.748L111.803 78.85C111.803 78.6913 111.873 78.612 112.013 78.612H113.399C113.529 78.612 113.595 78.6867 113.595 78.836V88.692ZM117.19 88.692C117.19 88.804 117.162 88.8833 117.106 88.93C117.06 88.9767 116.976 89 116.854 89H115.636C115.534 89 115.464 88.9813 115.426 88.944C115.389 88.8973 115.37 88.832 115.37 88.748V81.818C115.37 81.6593 115.44 81.58 115.58 81.58H116.994C117.125 81.58 117.19 81.6547 117.19 81.804V88.692ZM117.218 80.208C117.218 80.4227 117.106 80.53 116.882 80.53H115.608C115.506 80.53 115.436 80.5067 115.398 80.46C115.361 80.4133 115.342 80.3433 115.342 80.25V78.878C115.342 78.7007 115.417 78.612 115.566 78.612H117.008C117.148 78.612 117.218 78.6913 117.218 78.85V80.208ZM117.064 91.058C117.064 91.1513 117.046 91.2167 117.008 91.254C116.971 91.2913 116.901 91.31 116.798 91.31H115.804C115.711 91.31 115.65 91.2913 115.622 91.254C115.594 91.226 115.58 91.1747 115.58 91.1V89.896C115.58 89.756 115.632 89.686 115.734 89.686H116.91C117.013 89.686 117.064 89.7467 117.064 89.868V91.058ZM122.228 81.44C122.788 81.44 123.274 81.538 123.684 81.734C124.095 81.9207 124.431 82.168 124.692 82.476C124.963 82.7747 125.168 83.092 125.308 83.428C125.364 83.596 125.318 83.6847 125.168 83.694L123.936 83.848C123.843 83.8667 123.778 83.8247 123.74 83.722C123.619 83.5167 123.493 83.3347 123.362 83.176C123.232 83.0173 123.082 82.8913 122.914 82.798C122.746 82.7047 122.541 82.658 122.298 82.658C121.925 82.658 121.594 82.7607 121.304 82.966C121.024 83.162 120.805 83.456 120.646 83.848C120.497 84.24 120.422 84.7207 120.422 85.29C120.422 85.8687 120.502 86.354 120.66 86.746C120.828 87.138 121.057 87.4367 121.346 87.642C121.636 87.838 121.981 87.936 122.382 87.936C122.802 87.936 123.148 87.8287 123.418 87.614C123.689 87.39 123.941 87.082 124.174 86.69C124.202 86.6527 124.23 86.6293 124.258 86.62C124.286 86.6107 124.333 86.6153 124.398 86.634L125.28 86.872C125.374 86.9 125.402 86.9793 125.364 87.11C125.271 87.3247 125.136 87.5533 124.958 87.796C124.79 88.0387 124.58 88.2627 124.328 88.468C124.076 88.664 123.773 88.8273 123.418 88.958C123.073 89.0793 122.676 89.14 122.228 89.14C121.519 89.14 120.889 88.9813 120.338 88.664C119.788 88.3373 119.354 87.8893 119.036 87.32C118.728 86.7413 118.574 86.074 118.574 85.318C118.574 84.5527 118.733 83.8807 119.05 83.302C119.368 82.714 119.802 82.2567 120.352 81.93C120.903 81.6033 121.528 81.44 122.228 81.44ZM126.888 89C126.711 89 126.622 88.916 126.622 88.748V78.85C126.622 78.6913 126.692 78.612 126.832 78.612H128.218C128.34 78.612 128.4 78.682 128.4 78.822V82.462C128.4 82.518 128.414 82.5507 128.442 82.56C128.47 82.5693 128.508 82.5553 128.554 82.518C128.862 82.2567 129.147 82.0513 129.408 81.902C129.67 81.7433 129.931 81.6267 130.192 81.552C130.454 81.4773 130.724 81.44 131.004 81.44C131.723 81.44 132.274 81.636 132.656 82.028C133.039 82.42 133.23 82.9567 133.23 83.638V88.706C133.23 88.902 133.132 89 132.936 89H131.648C131.564 89 131.504 88.9813 131.466 88.944C131.429 88.9067 131.41 88.8413 131.41 88.748V83.932C131.41 83.568 131.312 83.288 131.116 83.092C130.93 82.8867 130.64 82.784 130.248 82.784C130.024 82.784 129.814 82.8213 129.618 82.896C129.432 82.9613 129.245 83.064 129.058 83.204C128.872 83.344 128.666 83.5213 128.442 83.736V88.72C128.442 88.9067 128.34 89 128.134 89H126.888ZM138.085 89C137.917 89 137.833 88.916 137.833 88.748V81.818C137.833 81.6593 137.899 81.58 138.029 81.58H139.429C139.551 81.58 139.611 81.65 139.611 81.79V82.518C139.611 82.574 139.625 82.6113 139.653 82.63C139.681 82.6393 139.719 82.6207 139.765 82.574C140.036 82.3407 140.297 82.14 140.549 81.972C140.801 81.804 141.063 81.6733 141.333 81.58C141.604 81.4867 141.898 81.44 142.215 81.44C142.906 81.44 143.447 81.6407 143.839 82.042C144.241 82.434 144.441 82.9567 144.441 83.61V88.706C144.441 88.902 144.343 89 144.147 89H142.859C142.775 89 142.715 88.9813 142.677 88.944C142.64 88.9067 142.621 88.8413 142.621 88.748V83.932C142.621 83.568 142.523 83.288 142.327 83.092C142.131 82.8867 141.837 82.784 141.445 82.784C141.221 82.784 141.011 82.8213 140.815 82.896C140.629 82.9613 140.442 83.064 140.255 83.204C140.069 83.344 139.868 83.5213 139.653 83.736V88.72C139.653 88.9067 139.546 89 139.331 89H138.085ZM153.342 81.328C153.426 81.328 153.492 81.3513 153.538 81.398C153.594 81.4353 153.622 81.5053 153.622 81.608V82.392C153.622 82.5133 153.594 82.5973 153.538 82.644C153.492 82.6907 153.417 82.7093 153.314 82.7C153.184 82.6813 153.058 82.6767 152.936 82.686C152.824 82.686 152.722 82.7 152.628 82.728C152.386 82.784 152.292 82.8913 152.348 83.05C152.376 83.134 152.409 83.2367 152.446 83.358C152.493 83.4793 152.516 83.624 152.516 83.792C152.516 84.212 152.395 84.5947 152.152 84.94C151.919 85.2853 151.56 85.5607 151.074 85.766C150.589 85.9713 149.982 86.074 149.254 86.074C148.844 86.074 148.517 86.0973 148.274 86.144C148.041 86.1907 147.873 86.256 147.77 86.34C147.668 86.4147 147.616 86.4987 147.616 86.592C147.616 86.7227 147.696 86.816 147.854 86.872C148.022 86.9187 148.279 86.956 148.624 86.984L150.556 87.096C151.471 87.1427 152.138 87.348 152.558 87.712C152.978 88.0667 153.188 88.5287 153.188 89.098C153.188 89.798 152.857 90.3627 152.194 90.792C151.541 91.2307 150.589 91.45 149.338 91.45C148.041 91.45 147.061 91.2913 146.398 90.974C145.745 90.666 145.418 90.204 145.418 89.588C145.418 89.2613 145.54 88.986 145.782 88.762C146.025 88.538 146.347 88.342 146.748 88.174C146.87 88.1273 146.87 88.076 146.748 88.02C146.534 87.9173 146.352 87.7913 146.202 87.642C146.062 87.4833 145.992 87.292 145.992 87.068C145.992 86.8907 146.048 86.732 146.16 86.592C146.272 86.4427 146.422 86.3073 146.608 86.186C146.804 86.0647 147.024 85.9573 147.266 85.864C147.313 85.8453 147.341 85.822 147.35 85.794C147.369 85.7567 147.346 85.724 147.28 85.696C146.86 85.4907 146.538 85.234 146.314 84.926C146.09 84.6087 145.978 84.2353 145.978 83.806C145.978 83.0967 146.268 82.532 146.846 82.112C147.434 81.6827 148.284 81.468 149.394 81.468C149.898 81.468 150.328 81.524 150.682 81.636C151.046 81.748 151.345 81.902 151.578 82.098C151.644 82.1447 151.709 82.168 151.774 82.168C151.84 82.1587 151.896 82.1307 151.942 82.084C152.054 81.9533 152.19 81.832 152.348 81.72C152.507 81.5987 152.675 81.5053 152.852 81.44C153.03 81.3653 153.193 81.328 153.342 81.328ZM149.24 85.122C149.791 85.122 150.197 85.0007 150.458 84.758C150.72 84.5153 150.85 84.2027 150.85 83.82C150.85 83.4 150.72 83.064 150.458 82.812C150.197 82.56 149.791 82.434 149.24 82.434C148.727 82.434 148.33 82.56 148.05 82.812C147.77 83.064 147.63 83.4 147.63 83.82C147.63 84.2027 147.77 84.5153 148.05 84.758C148.33 85.0007 148.727 85.122 149.24 85.122ZM148.134 88.412C147.957 88.4027 147.775 88.44 147.588 88.524C147.411 88.5987 147.257 88.7107 147.126 88.86C147.005 89 146.944 89.1633 146.944 89.35C146.944 89.5927 147.028 89.8027 147.196 89.98C147.374 90.1573 147.649 90.288 148.022 90.372C148.396 90.4653 148.881 90.512 149.478 90.512C150.16 90.512 150.678 90.414 151.032 90.218C151.387 90.0313 151.564 89.756 151.564 89.392C151.564 89.1493 151.466 88.9487 151.27 88.79C151.084 88.6313 150.78 88.5427 150.36 88.524L148.134 88.412ZM158.697 88.23C158.379 88.51 158.034 88.734 157.661 88.902C157.287 89.0607 156.863 89.14 156.387 89.14C155.668 89.14 155.103 88.9533 154.693 88.58C154.291 88.1973 154.091 87.7027 154.091 87.096C154.091 86.5827 154.245 86.1393 154.553 85.766C154.861 85.3833 155.309 85.0847 155.897 84.87C156.485 84.6553 157.189 84.5293 158.011 84.492L158.711 84.45C158.767 84.4407 158.818 84.422 158.865 84.394C158.911 84.366 158.935 84.3147 158.935 84.24V83.918C158.935 83.5073 158.813 83.19 158.571 82.966C158.328 82.7327 157.992 82.616 157.563 82.616C157.236 82.616 156.928 82.6907 156.639 82.84C156.359 82.98 156.116 83.2133 155.911 83.54C155.883 83.596 155.85 83.6333 155.813 83.652C155.785 83.6707 155.729 83.6707 155.645 83.652L154.469 83.358C154.422 83.3393 154.385 83.3113 154.357 83.274C154.338 83.2367 154.357 83.162 154.413 83.05C154.665 82.518 155.061 82.1167 155.603 81.846C156.153 81.5753 156.835 81.44 157.647 81.44C158.365 81.44 158.944 81.538 159.383 81.734C159.831 81.93 160.157 82.2053 160.363 82.56C160.568 82.9053 160.671 83.316 160.671 83.792V88.72C160.671 88.8227 160.652 88.8973 160.615 88.944C160.587 88.9813 160.526 89 160.433 89H159.243C159.159 89 159.098 88.9673 159.061 88.902C159.023 88.8367 159 88.7573 158.991 88.664L158.963 88.244C158.944 88.0853 158.855 88.0807 158.697 88.23ZM158.935 85.612C158.935 85.444 158.865 85.3647 158.725 85.374L158.151 85.416C157.852 85.4347 157.563 85.4813 157.283 85.556C157.012 85.6213 156.769 85.7147 156.555 85.836C156.349 85.948 156.181 86.0927 156.051 86.27C155.929 86.438 155.869 86.6387 155.869 86.872C155.869 87.1893 155.981 87.4413 156.205 87.628C156.438 87.8147 156.751 87.908 157.143 87.908C157.395 87.908 157.628 87.866 157.843 87.782C158.057 87.698 158.244 87.5907 158.403 87.46C158.561 87.3293 158.687 87.194 158.781 87.054C158.883 86.9047 158.935 86.7553 158.935 86.606V85.612ZM162.866 91.31C162.586 91.31 162.376 91.296 162.236 91.268C162.096 91.2493 162.026 91.184 162.026 91.072V90.176C162.026 90.12 162.054 90.0687 162.11 90.022C162.166 89.9847 162.274 89.966 162.432 89.966H163.356C163.543 89.966 163.711 89.9147 163.86 89.812C164.019 89.7093 164.145 89.5833 164.238 89.434C164.341 89.2847 164.406 89.1307 164.434 88.972C164.472 88.804 164.462 88.6547 164.406 88.524L161.718 81.888C161.69 81.804 161.695 81.734 161.732 81.678C161.77 81.6127 161.835 81.58 161.928 81.58H163.384C163.45 81.58 163.506 81.5987 163.552 81.636C163.608 81.6733 163.646 81.7247 163.664 81.79L165.4 86.396C165.428 86.48 165.466 86.522 165.512 86.522C165.559 86.522 165.601 86.4707 165.638 86.368L167.36 81.776C167.388 81.72 167.421 81.6733 167.458 81.636C167.505 81.5987 167.561 81.58 167.626 81.58H168.648C168.723 81.58 168.779 81.6127 168.816 81.678C168.854 81.734 168.854 81.7947 168.816 81.86L165.876 89.224C165.699 89.6627 165.512 90.0173 165.316 90.288C165.13 90.5587 164.92 90.7687 164.686 90.918C164.453 91.0673 164.187 91.17 163.888 91.226C163.599 91.282 163.258 91.31 162.866 91.31Z" fill="#FCE48C"/>
<path d="M106.71 7.51172C141.31 -1.75934 174.925 -1.51484 201.293 6.34961C227.671 14.2169 246.717 29.6778 252.373 50.7861C258.029 71.8944 249.264 94.8066 230.354 114.809C211.451 134.804 182.462 151.823 147.861 161.094C113.261 170.365 79.6467 170.121 53.2783 162.257C26.9009 154.39 7.85434 138.928 2.19824 117.82C-3.45772 96.712 5.30587 73.7989 24.2158 53.7969C43.1193 33.8017 72.1093 16.7829 106.71 7.51172Z" stroke="#FCE48C"/>
</svg>
